<svg width="19" height="10" viewBox="0 0 19 10" fill="none" xmlns="http://www.w3.org/2000/svg">
    <path fill-rule="evenodd" clip-rule="evenodd" d="M17.5 5.17343C13.0807 -0.226755 5.91933 -0.226755 1.5 5.17343C5.92662 10.5736 13.0807 10.5736 17.5 5.17343ZM9.50729 8.93715C11.6221 8.93715 13.3359 7.25183 13.3359 5.17343C13.3359 3.0943 11.6221 1.40898 9.50729 1.40898C7.38514 1.40898 5.67137 3.0943 5.67137 5.17343C5.67137 7.25183 7.38514 8.93715 9.50729 8.93715ZM11.6512 5.16322C11.6512 6.33149 10.6885 7.27953 9.49984 7.27953C8.30386 7.27953 7.34123 6.33149 7.34123 5.16322C7.34123 3.99421 8.30386 3.04617 9.49984 3.04617C10.6885 3.04617 11.6512 3.99421 11.6512 5.16322Z" fill="#333333" stroke="#333333"/>
</svg>
