<svg width="90" height="16" viewBox="0 0 90 16" fill="none" xmlns="http://www.w3.org/2000/svg">
    <path d="M2.51492 2.90951V7.63659H6.04443C6.70052 7.63659 7.25662 7.40783 7.7132 6.94984C8.16978 6.49185 8.39806 5.93292 8.39806 5.27258C8.39806 4.61366 8.16978 4.05426 7.7132 3.59627C7.25662 3.13827 6.70052 2.90951 6.04443 2.90951H2.51492ZM8.59145 14.8687L5.42418 9.7176H2.51492V14.8687H0.0546875V0.727567H6.04443C7.38539 0.727567 8.52306 1.16905 9.45696 2.0506C10.3909 2.9331 10.8578 4.00709 10.8578 5.27258C10.8578 6.17536 10.5838 7.00031 10.0348 7.74791C9.48621 8.49504 8.76832 9.03746 7.88441 9.37376L11.287 14.8687H8.59145Z" fill="#3F50FB"/>
    <path d="M14.3066 8.96905H20.5954C20.4388 8.14788 20.0794 7.5281 19.5162 7.11114C18.9531 6.69372 18.2918 6.48429 17.5371 6.48429C16.6806 6.48429 15.9679 6.70692 15.3976 7.15124C14.8264 7.59555 14.4632 8.20165 14.3066 8.96905ZM14.3274 10.7473C14.4986 11.5147 14.8906 12.1042 15.5042 12.5146C16.1174 12.9259 16.8664 13.1311 17.7508 13.1311C18.9766 13.1311 19.8978 12.7136 20.5105 11.8783L22.4142 12.9287C21.3595 14.397 19.7969 15.1305 17.73 15.1305C15.9896 15.1305 14.5849 14.6291 13.5147 13.6259C12.4454 12.6226 11.911 11.3529 11.911 9.81759C11.911 8.30966 12.4379 7.04653 13.493 6.03055C14.5486 5.01315 15.9037 4.50469 17.5588 4.50469C19.1276 4.50469 20.4148 5.02353 21.4199 6.06026C22.4255 7.09794 22.9283 8.35683 22.9283 9.83787C22.9283 10.0671 22.8991 10.3704 22.842 10.7473H14.3274Z" fill="#3F50FB"/>
    <path d="M27.5663 12.1311C28.2087 12.7443 29.0138 13.0504 29.984 13.0504C30.9533 13.0504 31.7594 12.7443 32.4018 12.1311C33.0428 11.5184 33.3645 10.7473 33.3645 9.81806C33.3645 8.8884 33.0428 8.11769 32.4018 7.50499C31.7594 6.89229 30.9533 6.58618 29.984 6.58618C29.0138 6.58618 28.2087 6.89229 27.5663 7.50499C26.9253 8.11769 26.6036 8.8884 26.6036 9.81806C26.6036 10.7473 26.9253 11.5184 27.5663 12.1311ZM33.3645 4.76741H35.6743V14.8682H33.3645V13.4136C32.4938 14.5588 31.2458 15.131 29.6199 15.131C28.1516 15.131 26.896 14.6164 25.8555 13.5858C24.8136 12.5556 24.2943 11.2991 24.2943 9.81806C24.2943 8.32334 24.8136 7.06398 25.8555 6.03998C26.896 5.01693 28.1516 4.50469 29.6199 4.50469C31.2458 4.50469 32.4938 5.0707 33.3645 6.20176V4.76741Z" fill="#3F50FB"/>
    <path d="M40.6345 0.120361H38.3238V14.8676H40.6345V0.120361Z" fill="#3F50FB"/>
    <path d="M48.9813 7.83688C49.7091 7.83688 50.3077 7.60435 50.7775 7.13928C51.2487 6.67516 51.4845 6.08651 51.4845 5.37193C51.4845 4.65876 51.2487 4.06965 50.7775 3.60458C50.3077 3.13999 49.7091 2.90792 48.9813 2.90792H45.9216V7.83688H48.9813ZM48.9813 0.725505C50.3926 0.725505 51.5727 1.17029 52.5212 2.05939C53.4697 2.94802 53.9442 4.05267 53.9442 5.37193C53.9442 6.67846 53.4697 7.77934 52.5212 8.67504C51.5727 9.57121 50.3926 10.0188 48.9813 10.0188H45.9216V14.8671H43.4614V0.725505H48.9813Z" fill="#3F50FB"/>
    <path d="M58.0238 6.46365C58.6078 5.21137 59.7053 4.58499 61.318 4.58499V6.94853C60.4326 6.89476 59.6634 7.09286 59.0073 7.54472C58.3516 7.99564 58.0238 8.73993 58.0238 9.77667V14.8674H55.7131V4.76658H58.0238V6.46365Z" fill="#3F50FB"/>
    <path d="M63.0816 4.76715H65.3923V14.8684H63.0816V4.76715ZM65.2744 2.83802C64.9819 3.11442 64.6362 3.25262 64.2362 3.25262C63.8367 3.25262 63.491 3.11442 63.1995 2.83802C62.9071 2.5621 62.7608 2.23523 62.7608 1.85837C62.7608 1.4815 62.9033 1.15464 63.1882 0.878709C63.474 0.60231 63.8221 0.464111 64.2362 0.464111C64.6504 0.464111 64.9989 0.60231 65.2852 0.878709C65.5696 1.15464 65.713 1.4815 65.713 1.85837C65.713 2.23523 65.5659 2.5621 65.2744 2.83802Z" fill="#3F50FB"/>
    <path d="M73.0857 15.131C71.4731 15.131 70.1284 14.6197 69.053 13.5957C67.9757 12.5721 67.4375 11.3133 67.4375 9.81806C67.4375 8.31013 67.9757 7.047 69.053 6.03055C70.1284 5.01315 71.4731 4.50469 73.0857 4.50469C74.1263 4.50469 75.0748 4.741 75.9304 5.2122C76.7869 5.6834 77.4279 6.31685 77.8553 7.11114L75.8667 8.20165C75.6233 7.71724 75.2568 7.3366 74.7654 7.06068C74.272 6.78428 73.706 6.64608 73.0636 6.64608C72.1226 6.64608 71.3344 6.94936 70.6991 7.55546C70.0656 8.16155 69.7477 8.91623 69.7477 9.81806C69.7477 10.7204 70.0656 11.4746 70.6991 12.0807C71.3344 12.6868 72.1226 12.9896 73.0636 12.9896C73.6914 12.9896 74.2583 12.8481 74.7654 12.5655C75.2701 12.2825 75.6526 11.9061 75.9087 11.434L77.8991 12.5047C77.4421 13.3131 76.7869 13.9527 75.9304 14.4239C75.0748 14.8951 74.1263 15.131 73.0857 15.131Z" fill="#3F50FB"/>
    <path d="M81.1625 8.96905H87.4513C87.2947 8.14788 86.9353 7.5281 86.3717 7.11114C85.8085 6.69372 85.1477 6.48429 84.3925 6.48429C83.5365 6.48429 82.8233 6.70692 82.2531 7.15124C81.6823 7.59555 81.3191 8.20165 81.1625 8.96905ZM81.1833 10.7473C81.354 11.5147 81.7465 12.1042 82.3596 12.5146C82.9733 12.9259 83.7223 13.1311 84.6062 13.1311C85.8326 13.1311 86.7533 12.7136 87.366 11.8783L89.2701 12.9287C88.215 14.397 86.6523 15.1305 84.5855 15.1305C82.8455 15.1305 81.4408 14.6291 80.3706 13.6259C79.3013 12.6226 78.7669 11.3529 78.7669 9.81759C78.7669 8.30966 79.2938 7.04653 80.3489 6.03055C81.404 5.01315 82.7591 4.50469 84.4147 4.50469C85.9835 4.50469 87.2702 5.02353 88.2758 6.06026C89.2814 7.09794 89.7837 8.35683 89.7837 9.83787C89.7837 10.0671 89.755 10.3704 89.6979 10.7473H81.1833Z" fill="#3F50FB"/>
</svg>
