<svg width="34" height="32" viewBox="0 0 34 32" fill="none" xmlns="http://www.w3.org/2000/svg">
    <path d="M33.5319 32H16.023C15.107 32 14.3646 31.2996 14.3646 30.4341C14.3646 29.5685 15.107 28.8681 16.023 28.8681H30.2151V16.9561L16.9489 4.42851L2.83085 17.7607C2.18324 18.3725 1.13378 18.3725 0.485703 17.7607C-0.161901 17.149 -0.161901 16.158 0.485703 15.5463L16.9489 0L33.5319 15.6595V32Z" fill="#3F50FB"/>
    <path d="M25.623 22.9729C25.623 23.887 24.8382 24.6285 23.8698 24.6285C22.9015 24.6285 22.1166 23.887 22.1166 22.9729C22.1166 22.0588 22.9015 21.3174 23.8698 21.3174C24.8382 21.3174 25.623 22.0588 25.623 22.9729Z" fill="#3F50FB"/>
</svg>
