<svg width="18" height="18" viewBox="0 0 18 18" fill="none" xmlns="http://www.w3.org/2000/svg">
    <path fill-rule="evenodd" clip-rule="evenodd" d="M13.9999 7.50002C13.9999 8.93174 13.529 10.2524 12.7417 11.3276L17 15.5859L15.586 17L11.3277 12.7417C10.2525 13.529 8.93169 14 7.49999 14C3.91602 14 1 11.084 1 7.50002C1 3.91603 3.91599 1 7.49996 1C11.0839 1 13.9999 3.91603 13.9999 7.50002ZM2 7.50003C2 10.5329 4.4671 13 7.49997 13C10.5328 13 12.9999 10.5329 12.9999 7.50003C12.9999 4.46713 10.5328 2.00002 7.49997 2.00002C4.4671 2.00002 2 4.46713 2 7.50003Z" fill="#2B2B2B"/>
    <path d="M12.7417 11.3276L12.3382 11.0322L12.085 11.378L12.3881 11.6812L12.7417 11.3276ZM17 15.5859L17.3536 15.9395L17.7071 15.5859L17.3536 15.2324L17 15.5859ZM15.586 17L15.2324 17.3535L15.586 17.7071L15.9395 17.3535L15.586 17ZM11.3277 12.7417L11.6812 12.3881L11.3781 12.085L11.0323 12.3383L11.3277 12.7417ZM13.1451 11.623C13.9918 10.4667 14.4999 9.04352 14.4999 7.50002H13.4999C13.4999 8.81995 13.0662 10.0381 12.3382 11.0322L13.1451 11.623ZM17.3536 15.2324L13.0952 10.974L12.3881 11.6812L16.6464 15.9395L17.3536 15.2324ZM15.9395 17.3535L17.3536 15.9395L16.6464 15.2324L15.2324 16.6464L15.9395 17.3535ZM10.9741 13.0952L15.2324 17.3535L15.9395 16.6464L11.6812 12.3881L10.9741 13.0952ZM7.49999 14.5C9.04348 14.5 10.4668 13.9918 11.6231 13.1451L11.0323 12.3383C10.0382 13.0662 8.8199 13.5 7.49999 13.5V14.5ZM0.5 7.50002C0.5 11.3602 3.63987 14.5 7.49999 14.5V13.5C4.19216 13.5 1.5 10.8079 1.5 7.50002H0.5ZM7.49996 0.5C3.63984 0.5 0.5 3.6399 0.5 7.50002H1.5C1.5 4.19217 4.19213 1.5 7.49996 1.5V0.5ZM14.4999 7.50002C14.4999 3.63989 11.3601 0.5 7.49996 0.5V1.5C10.8078 1.5 13.4999 4.19217 13.4999 7.50002H14.4999ZM7.49997 12.5C4.74324 12.5 2.5 10.2568 2.5 7.50003H1.5C1.5 10.8091 4.19095 13.5 7.49997 13.5V12.5ZM12.4999 7.50003C12.4999 10.2568 10.2567 12.5 7.49997 12.5V13.5C10.8089 13.5 13.4999 10.8091 13.4999 7.50003H12.4999ZM7.49997 2.50002C10.2567 2.50002 12.4999 4.74327 12.4999 7.50003H13.4999C13.4999 4.191 10.809 1.50002 7.49997 1.50002V2.50002ZM2.5 7.50003C2.5 4.74327 4.74324 2.50002 7.49997 2.50002V1.50002C4.19095 1.50002 1.5 4.191 1.5 7.50003H2.5Z" fill="#333333"/>
</svg>
